<svg preserveAspectRatio="none" overflow="visible" style="display: block;" width="49.9623" height="49.9623" viewBox="0 0 49.9623 49.9623" fill="none" xmlns="http://www.w3.org/2000/svg">
<g id="bi:arrow-right-square-fill" clip-path="url(#clip0_0_5)">
<path id="Vector" d="M0 43.717C0 45.3733 0.657984 46.9619 1.8292 48.1331C3.00042 49.3043 4.58893 49.9623 6.24529 49.9623H43.717C45.3733 49.9623 46.9619 49.3043 48.1331 48.1331C49.3043 46.9619 49.9623 45.3733 49.9623 43.717V6.24529C49.9623 4.58893 49.3043 3.00042 48.1331 1.8292C46.9619 0.657984 45.3733 0 43.717 0L6.24529 0C4.58893 0 3.00042 0.657984 1.8292 1.8292C0.657984 3.00042 0 4.58893 0 6.24529L0 43.717ZM14.0519 23.4198H32.1414L25.437 16.7186C25.1439 16.4255 24.9792 16.0278 24.9792 15.6132C24.9792 15.1986 25.1439 14.801 25.437 14.5078C25.7302 14.2146 26.1279 14.0499 26.5425 14.0499C26.9571 14.0499 27.3547 14.2146 27.6479 14.5078L37.0158 23.8757C37.1612 24.0208 37.2766 24.1931 37.3553 24.3827C37.434 24.5724 37.4745 24.7758 37.4745 24.9811C37.4745 25.1865 37.434 25.3899 37.3553 25.5795C37.2766 25.7692 37.1612 25.9415 37.0158 26.0866L27.6479 35.4545C27.3547 35.7477 26.9571 35.9124 26.5425 35.9124C26.1279 35.9124 25.7302 35.7477 25.437 35.4545C25.1439 35.1613 24.9792 34.7637 24.9792 34.3491C24.9792 33.9345 25.1439 33.5368 25.437 33.2437L32.1414 26.5425H14.0519C13.6378 26.5425 13.2407 26.378 12.9479 26.0852C12.6551 25.7924 12.4906 25.3952 12.4906 24.9811C12.4906 24.5671 12.6551 24.1699 12.9479 23.8771C13.2407 23.5843 13.6378 23.4198 14.0519 23.4198Z" fill="white"/>
</g>
<defs>
<clipPath id="clip0_0_5">
<rect width="49.9623" height="49.9623" fill="white"/>
</clipPath>
</defs>
</svg>
